<svg width="437" height="274" viewBox="0 0 437 274" fill="none" xmlns="http://www.w3.org/2000/svg">
<rect width="437" height="274" fill="#ECECEC"/>
<path d="M154.773 237H151.551L147.262 229.992L142.938 237H139.938L145.621 228.117L140.301 219.867H143.418L147.379 226.348L151.34 219.867H154.363L149.008 228.164L154.773 237ZM161.898 231.738V229.395H167.922V231.738H161.898ZM189.906 237H186.684L182.395 229.992L178.07 237H175.07L180.754 228.117L175.434 219.867H178.551L182.512 226.348L186.473 219.867H189.496L184.141 228.164L189.906 237ZM189.953 224.039H192.953L195.59 231.387C195.988 232.434 196.254 233.418 196.387 234.34H196.48C196.551 233.91 196.68 233.391 196.867 232.781C197.055 232.164 198.047 229.25 199.844 224.039H202.82L197.277 238.723C196.27 241.418 194.59 242.766 192.238 242.766C191.629 242.766 191.035 242.699 190.457 242.566V240.387C190.871 240.48 191.344 240.527 191.875 240.527C193.203 240.527 194.137 239.758 194.676 238.219L195.156 237L189.953 224.039ZM217.223 241.582H214.656V237H205.773V241.582H203.23V234.867H204.285C205.207 233.547 205.938 231.953 206.477 230.086C207.023 228.211 207.348 226.195 207.449 224.039H215.324V234.867H217.223V241.582ZM212.617 234.867V226.148H209.828C209.68 227.758 209.367 229.344 208.891 230.906C208.422 232.469 207.848 233.789 207.168 234.867H212.617ZM231.121 230.496C231.121 232.613 230.578 234.266 229.492 235.453C228.406 236.641 226.895 237.234 224.957 237.234C223.746 237.234 222.676 236.961 221.746 236.414C220.816 235.867 220.102 235.082 219.602 234.059C219.102 233.035 218.852 231.848 218.852 230.496C218.852 228.395 219.391 226.754 220.469 225.574C221.547 224.395 223.066 223.805 225.027 223.805C226.902 223.805 228.387 224.41 229.48 225.621C230.574 226.824 231.121 228.449 231.121 230.496ZM221.688 230.496C221.688 233.488 222.793 234.984 225.004 234.984C227.191 234.984 228.285 233.488 228.285 230.496C228.285 227.535 227.184 226.055 224.98 226.055C223.824 226.055 222.984 226.438 222.461 227.203C221.945 227.969 221.688 229.066 221.688 230.496ZM240.684 230.332V224.039H243.25V230.332L248.242 224.039H251.148L246.051 230.309L251.605 237H248.57L243.25 230.426V237H240.684V230.426L235.375 237H232.352L237.895 230.309L232.809 224.039H235.715L240.684 230.332ZM256.363 224.039V229.242H262.469V224.039H265.223V237H262.469V231.41H256.363V237H253.609V224.039H256.363ZM271.809 224.039V230.684C271.809 231.457 271.746 232.594 271.621 234.094L278.125 224.039H281.488V237H278.84V230.473C278.84 230.113 278.859 229.531 278.898 228.727C278.945 227.922 278.984 227.336 279.016 226.969L272.535 237H269.172V224.039H271.809ZM293.453 224.039H296.477L291.121 230.285L296.934 237H293.77L288.168 230.426V237H285.414V224.039H288.168V230.332L293.453 224.039Z" fill="#666666"/>
<path d="M162.623 69.7151C166.997 69.7151 170.556 66.1558 170.556 61.7817C170.556 57.4076 166.997 53.8484 162.623 53.8484C158.249 53.8484 154.689 57.4076 154.689 61.7817C154.689 66.1558 158.249 69.7151 162.623 69.7151ZM162.623 58.3817C164.498 58.3817 166.023 59.9066 166.023 61.7817C166.023 63.6568 164.498 65.1817 162.623 65.1817C160.748 65.1817 159.223 63.6568 159.223 61.7817C159.223 59.9066 160.748 58.3817 162.623 58.3817Z" fill="#B6B6B6"/>
<path d="M265.756 100.315C265.756 104.689 269.316 108.248 273.69 108.248C278.064 108.248 281.623 104.689 281.623 100.315C281.623 95.9408 278.064 92.3816 273.69 92.3816C269.316 92.3816 265.756 95.9408 265.756 100.315ZM273.69 96.9149C275.565 96.9149 277.09 98.4398 277.09 100.315C277.09 102.19 275.565 103.715 273.69 103.715C271.815 103.715 270.29 102.19 270.29 100.315C270.29 98.4398 271.815 96.9149 273.69 96.9149Z" fill="#B6B6B6"/>
<path d="M282.756 75.6814C284.174 75.6814 285.323 74.5324 285.323 73.115C285.323 71.6976 284.174 70.5486 282.756 70.5486C281.339 70.5486 280.19 71.6976 280.19 73.115C280.19 74.5324 281.339 75.6814 282.756 75.6814Z" fill="#B6B6B6"/>
<path d="M173.956 84.7481C175.373 84.7481 176.523 83.5991 176.523 82.1817C176.523 80.7643 175.373 79.6152 173.956 79.6152C172.539 79.6152 171.39 80.7643 171.39 82.1817C171.39 83.5991 172.539 84.7481 173.956 84.7481Z" fill="#B6B6B6"/>
<path d="M257.723 65.2814C258.165 65.7239 258.746 65.9455 259.325 65.9455C259.905 65.9455 260.485 65.7239 260.928 65.2814L263.489 62.72L266.051 65.2814C266.493 65.7239 267.073 65.9455 267.653 65.9455C268.233 65.9455 268.813 65.7239 269.256 65.2814C270.141 64.3962 270.141 62.9614 269.256 62.0763L266.694 59.515L269.256 56.9536C270.141 56.0685 270.141 54.6337 269.256 53.7486C268.371 52.8634 266.936 52.8634 266.051 53.7486L263.489 56.3099L260.928 53.7486C260.043 52.8634 258.608 52.8634 257.723 53.7486C256.838 54.6337 256.838 56.0685 257.723 56.9536L260.284 59.515L257.723 62.0763C256.838 62.9614 256.838 64.3957 257.723 65.2814Z" fill="#B6B6B6"/>
<path d="M153.456 112.881C153.899 113.324 154.479 113.545 155.059 113.545C155.639 113.545 156.219 113.324 156.661 112.881L159.223 110.32L161.784 112.881C162.227 113.324 162.807 113.545 163.387 113.545C163.966 113.545 164.547 113.324 164.989 112.881C165.874 111.996 165.874 110.561 164.989 109.676L162.428 107.115L164.989 104.553C165.874 103.668 165.874 102.234 164.989 101.348C164.104 100.463 162.669 100.463 161.784 101.348L159.223 103.91L156.661 101.348C155.776 100.463 154.341 100.463 153.456 101.348C152.571 102.234 152.571 103.668 153.456 104.553L156.018 107.115L153.456 109.676C152.571 110.561 152.571 111.996 153.456 112.881Z" fill="#B6B6B6"/>
<path d="M230.623 113.915C231.874 113.915 232.889 112.9 232.889 111.648C232.889 110.396 231.874 109.382 230.623 109.382C229.371 109.382 228.356 110.396 228.356 111.648C228.356 112.9 229.371 113.915 230.623 113.915Z" fill="#B6B6B6"/>
<path d="M207.956 113.915C209.208 113.915 210.223 112.9 210.223 111.648C210.223 110.396 209.208 109.382 207.956 109.382C206.704 109.382 205.689 110.396 205.689 111.648C205.689 112.9 206.704 113.915 207.956 113.915Z" fill="#B6B6B6"/>
<path d="M281.849 148.369C278.974 146.211 278.732 142.724 278.454 138.689C278.017 132.398 277.475 124.571 264.905 122.999C258.498 122.205 252.148 124.257 247.013 128.788C242.745 132.557 239.73 137.699 238.326 143.259L229.49 139.245V137.416C229.49 137.395 229.479 137.377 229.478 137.356C238.153 133.211 244.749 125.488 247.425 116.177C248.932 116.217 250.32 115.812 251.69 114.958C253.793 113.645 255.216 111.511 255.495 109.245C255.776 106.973 255.072 104.696 253.57 102.994C252.536 101.827 251.195 101.001 249.72 100.597C249.716 100.198 249.7 98.75 249.695 98.5992C249.808 98.3272 249.891 88.4961 249.891 88.4961C250.415 88.4338 250.927 88.3386 251.409 88.1714C253.109 87.5849 254.407 86.3808 255.261 84.5946H255.263C258.212 78.4327 252.943 69.7032 242.932 62.9825C243.634 61.2066 243.707 59.2697 243.067 57.4541C242.361 55.4555 240.922 53.8507 239.012 52.9361C237.102 52.0175 234.95 51.9025 232.947 52.6063C231.129 53.2483 229.665 54.5188 228.722 56.1769C217.211 52.5893 207.106 53.955 204.153 60.1169C203.489 61.5052 203.345 62.9559 203.668 64.3607C193.967 68.796 188.651 77.1815 188.692 88.125L188.721 91.8678C188.743 93.986 188.799 97.9544 188.841 98.1317C188.84 98.1646 188.864 100.038 188.864 100.592C187.501 100.961 186.259 101.694 185.249 102.739C183.742 104.304 182.954 106.363 183.031 108.536C183.115 110.962 184.492 113.304 186.71 114.8C188.112 115.745 189.517 116.208 191.044 116.183C193.415 124.845 199.164 132.114 206.835 136.527C206.835 136.546 206.825 136.562 206.825 136.581V139.244L188.76 147.454C180.457 151.228 175.091 159.662 175.091 168.936V187.581C175.091 188.834 176.105 189.847 177.358 189.847H258.958C260.211 189.847 261.225 188.834 261.225 187.581V177.144C262.341 177.285 263.471 177.381 264.625 177.381C274.637 177.381 285.252 170.901 287.809 163.234C288.843 160.127 289.446 154.067 281.849 148.369ZM234.452 56.8835C235.312 56.5826 236.232 56.6353 237.049 57.0229C238.412 57.6774 239.126 59.1241 238.935 60.5453C238.007 60.0347 237.056 59.5378 236.07 59.0657C235.094 58.5982 234.12 58.1715 233.149 57.772C233.515 57.3873 233.938 57.0643 234.452 56.8835ZM208.24 62.0742C209.26 59.9469 212.445 58.7093 216.912 58.7093C221.581 58.7093 227.65 60.0597 234.114 63.1542C246.762 69.2147 253.254 78.2859 251.171 82.6379C250.755 83.5078 250.288 83.7622 249.928 83.8886C247.289 84.7918 241.031 81.695 234.391 78.4191C232.759 77.6133 231.049 76.7678 229.26 75.911C227.504 75.0701 225.764 74.262 224.077 73.4783C216.757 70.0761 209.191 66.5565 208.118 63.5662C207.941 63.0721 207.976 62.625 208.24 62.0742ZM205.971 68.286C209.151 71.5324 215.086 74.2977 222.165 77.5889C223.838 78.3658 225.563 79.1671 227.302 80.0018C229.073 80.8495 230.769 81.6865 232.385 82.4832C237.529 85.0242 241.802 87.1282 245.356 88.057V96.6278C238.574 101.728 230.904 103.66 223.655 102.075C217.156 100.656 211.766 96.5371 208.87 90.7753C208.541 90.1202 207.914 89.664 207.19 89.5535C206.462 89.4362 205.729 89.6861 205.22 90.2131C202.296 93.2233 198.026 95.0321 193.278 95.3284C193.276 94.2348 193.263 93.0442 193.251 91.8242L193.222 88.1074C193.18 76.4261 199.996 70.8955 205.971 68.286ZM194.974 113.14C194.844 112.505 194.447 111.956 193.885 111.631C193.323 111.308 192.647 111.246 192.03 111.447C191.153 111.746 190.343 111.786 189.246 111.042C188.241 110.365 187.594 109.342 187.559 108.375C187.525 107.441 187.864 106.557 188.511 105.887C189.157 105.218 190.025 104.848 190.956 104.848C191.569 104.848 192.18 104.587 192.608 104.149C193.237 103.502 193.431 102.947 193.392 99.8533C198.241 99.5813 202.74 97.9997 206.265 95.3216C209.973 100.991 215.819 105.006 222.687 106.504C224.671 106.938 226.674 107.153 228.682 107.153C234.319 107.151 239.973 105.435 245.236 102.167C245.322 103.203 245.529 103.699 245.987 104.162C246.412 104.594 247.016 104.848 247.623 104.848C248.597 104.848 249.526 105.267 250.171 105.997C250.826 106.737 251.118 107.693 250.996 108.691C250.881 109.612 250.244 110.515 249.292 111.111C248.335 111.706 247.525 111.797 246.5 111.436C245.89 111.212 245.21 111.277 244.643 111.591C244.074 111.907 243.669 112.454 243.53 113.089C241.323 123.223 233.833 131.502 223.98 134.694L222.979 135.021C220.161 135.935 217.281 135.969 214.656 135.121C204.634 131.896 197.092 123.473 194.974 113.14ZM213.267 139.437C214.984 139.991 216.771 140.265 218.584 140.265C220.507 140.265 222.457 139.955 224.379 139.333L224.957 139.144V139.982C224.957 143.731 221.906 146.782 218.157 146.782C214.407 146.782 211.357 143.731 211.357 139.982V138.686C211.994 138.935 212.61 139.226 213.267 139.437ZM256.69 185.315H243.09V173.982C243.09 172.729 242.076 171.715 240.823 171.715C239.57 171.715 238.556 172.729 238.556 173.982V185.315H195.49V173.982C195.49 172.729 194.476 171.715 193.223 171.715C191.97 171.715 190.956 172.729 190.956 173.982V185.315H179.623V168.937C179.623 161.436 183.946 154.622 190.636 151.581L207.56 143.889C209.159 148.21 213.286 151.315 218.156 151.315C223.027 151.315 227.153 148.21 228.753 143.889L237.549 147.886C237.485 148.649 237.423 149.414 237.423 150.182C237.423 162.421 245.55 172.791 256.69 176.195V185.315ZM283.507 161.801C281.579 167.582 272.578 172.848 264.623 172.848C252.125 172.848 241.956 162.68 241.956 150.182C241.956 143.366 244.969 136.64 250.014 132.188C253.582 129.038 257.847 127.364 262.212 127.364C262.921 127.364 263.631 127.409 264.342 127.497C273.211 128.606 273.513 132.966 273.931 139.001C274.241 143.497 274.593 148.592 279.131 151.995C283.188 155.038 284.66 158.339 283.507 161.801Z" fill="#B6B6B6"/>
<path d="M273.689 152.541C269.991 152.541 266.982 155.55 266.982 159.248C266.982 162.945 269.991 165.953 273.689 165.953C277.388 165.953 280.397 162.945 280.397 159.248C280.397 155.55 277.389 152.541 273.689 152.541ZM273.689 161.42C272.492 161.42 271.516 160.446 271.516 159.248C271.516 158.051 272.492 157.075 273.689 157.075C274.887 157.075 275.863 158.051 275.863 159.248C275.863 160.446 274.887 161.42 273.689 161.42Z" fill="#B6B6B6"/>
<path d="M260.09 130.649C256.818 130.649 254.157 133.31 254.157 136.582C254.157 139.854 256.818 142.514 260.09 142.514C263.362 142.514 266.022 139.854 266.022 136.582C266.022 133.31 263.362 130.649 260.09 130.649ZM260.09 137.981C259.32 137.981 258.691 137.352 258.691 136.582C258.691 135.811 259.319 135.183 260.09 135.183C260.86 135.183 261.489 135.811 261.489 136.582C261.489 137.352 260.86 137.981 260.09 137.981Z" fill="#B6B6B6"/>
<path d="M255.822 149.048C255.822 145.777 253.161 143.116 249.889 143.116C246.618 143.116 243.957 145.776 243.957 149.048C243.957 152.32 246.618 154.981 249.889 154.981C253.161 154.981 255.822 152.32 255.822 149.048ZM249.889 150.448C249.119 150.448 248.49 149.819 248.49 149.048C248.49 148.278 249.119 147.649 249.889 147.649C250.66 147.649 251.289 148.278 251.289 149.048C251.289 149.819 250.66 150.448 249.889 150.448Z" fill="#B6B6B6"/>
<path d="M257.823 157.849C254.552 157.849 251.891 160.51 251.891 163.782C251.891 167.053 254.551 169.714 257.823 169.714C261.095 169.714 263.755 167.053 263.755 163.782C263.755 160.51 261.095 157.849 257.823 157.849ZM257.823 165.181C257.053 165.181 256.424 164.552 256.424 163.782C256.424 163.011 257.052 162.382 257.823 162.382C258.594 162.382 259.222 163.011 259.222 163.782C259.222 164.552 258.594 165.181 257.823 165.181Z" fill="#B6B6B6"/>
<path d="M168.795 134.06C168.374 133.644 167.947 133.222 167.531 132.785C167.53 132.785 167.53 132.785 167.53 132.784C167.529 132.784 167.529 132.784 167.529 132.783C165.792 130.966 164.634 129.31 164.634 127.143C164.634 124.263 163.14 123.473 162.248 123.259C158.713 122.364 154.574 129.302 152.422 133.496C151.129 136.017 149.586 139.546 149.586 142.04C149.586 146.439 152.012 150.245 155.57 152.305L154.259 181.424C154.153 183.776 154.977 186.052 156.519 187.664C157.865 189.074 159.631 189.848 161.49 189.848C163.35 189.848 165.116 189.074 166.462 187.664C168.005 186.052 168.828 183.777 168.722 181.424L167.41 152.305C170.968 150.244 173.395 146.438 173.395 142.04C173.394 138.616 170.95 136.194 168.795 134.06ZM160.339 129.372C160.759 131.269 161.682 132.847 162.752 134.206C161.951 134.802 161.16 135.116 160.388 135.147C159.347 135.142 158.218 134.662 157.298 133.996C158.395 132.046 159.474 130.472 160.339 129.372ZM164.193 181.627C164.244 182.749 163.876 183.81 163.186 184.531C162.845 184.89 162.272 185.315 161.49 185.315C160.709 185.315 160.135 184.89 159.795 184.531C159.104 183.81 158.737 182.749 158.788 181.627L160.041 153.798C160.521 153.857 160.994 153.945 161.49 153.945C161.987 153.945 162.459 153.857 162.94 153.798L164.193 181.627ZM161.49 149.411C157.426 149.411 154.119 146.104 154.119 142.04C154.119 141.398 154.455 140.031 155.286 138.062C156.918 139.107 158.578 139.682 160.254 139.682C160.356 139.682 160.458 139.68 160.562 139.676C162.419 139.604 164.189 138.875 165.851 137.526C167.489 139.152 168.861 140.579 168.861 142.04C168.861 146.104 165.554 149.411 161.49 149.411Z" fill="#B6B6B6"/>
</svg>
