<svg width="668" height="419" viewBox="0 0 668 419" fill="none" xmlns="http://www.w3.org/2000/svg">
<rect width="668" height="419" fill="#ECECEC"/>
<path d="M270.773 341H267.551L263.262 333.992L258.938 341H255.938L261.621 332.117L256.301 323.867H259.418L263.379 330.348L267.34 323.867H270.363L265.008 332.164L270.773 341ZM277.898 335.738V333.395H283.922V335.738H277.898ZM305.906 341H302.684L298.395 333.992L294.07 341H291.07L296.754 332.117L291.434 323.867H294.551L298.512 330.348L302.473 323.867H305.496L300.141 332.164L305.906 341ZM305.953 328.039H308.953L311.59 335.387C311.988 336.434 312.254 337.418 312.387 338.34H312.48C312.551 337.91 312.68 337.391 312.867 336.781C313.055 336.164 314.047 333.25 315.844 328.039H318.82L313.277 342.723C312.27 345.418 310.59 346.766 308.238 346.766C307.629 346.766 307.035 346.699 306.457 346.566V344.387C306.871 344.48 307.344 344.527 307.875 344.527C309.203 344.527 310.137 343.758 310.676 342.219L311.156 341L305.953 328.039ZM333.223 345.582H330.656V341H321.773V345.582H319.23V338.867H320.285C321.207 337.547 321.938 335.953 322.477 334.086C323.023 332.211 323.348 330.195 323.449 328.039H331.324V338.867H333.223V345.582ZM328.617 338.867V330.148H325.828C325.68 331.758 325.367 333.344 324.891 334.906C324.422 336.469 323.848 337.789 323.168 338.867H328.617ZM347.121 334.496C347.121 336.613 346.578 338.266 345.492 339.453C344.406 340.641 342.895 341.234 340.957 341.234C339.746 341.234 338.676 340.961 337.746 340.414C336.816 339.867 336.102 339.082 335.602 338.059C335.102 337.035 334.852 335.848 334.852 334.496C334.852 332.395 335.391 330.754 336.469 329.574C337.547 328.395 339.066 327.805 341.027 327.805C342.902 327.805 344.387 328.41 345.48 329.621C346.574 330.824 347.121 332.449 347.121 334.496ZM337.688 334.496C337.688 337.488 338.793 338.984 341.004 338.984C343.191 338.984 344.285 337.488 344.285 334.496C344.285 331.535 343.184 330.055 340.98 330.055C339.824 330.055 338.984 330.438 338.461 331.203C337.945 331.969 337.688 333.066 337.688 334.496ZM356.684 334.332V328.039H359.25V334.332L364.242 328.039H367.148L362.051 334.309L367.605 341H364.57L359.25 334.426V341H356.684V334.426L351.375 341H348.352L353.895 334.309L348.809 328.039H351.715L356.684 334.332ZM372.363 328.039V333.242H378.469V328.039H381.223V341H378.469V335.41H372.363V341H369.609V328.039H372.363ZM387.809 328.039V334.684C387.809 335.457 387.746 336.594 387.621 338.094L394.125 328.039H397.488V341H394.84V334.473C394.84 334.113 394.859 333.531 394.898 332.727C394.945 331.922 394.984 331.336 395.016 330.969L388.535 341H385.172V328.039H387.809ZM409.453 328.039H412.477L407.121 334.285L412.934 341H409.77L404.168 334.426V341H401.414V328.039H404.168V334.332L409.453 328.039Z" fill="#666666"/>
<path d="M256.735 125.804C262.807 125.804 267.748 120.863 267.748 114.791C267.748 108.719 262.807 103.778 256.735 103.778C250.663 103.778 245.722 108.719 245.722 114.791C245.722 120.863 250.663 125.804 256.735 125.804ZM256.735 110.071C259.338 110.071 261.455 112.188 261.455 114.791C261.455 117.394 259.338 119.511 256.735 119.511C254.132 119.511 252.015 117.394 252.015 114.791C252.015 112.188 254.133 110.071 256.735 110.071Z" fill="#B6B6B6"/>
<path d="M399.908 168.284C399.908 174.357 404.849 179.298 410.922 179.298C416.994 179.298 421.935 174.357 421.935 168.284C421.935 162.212 416.994 157.271 410.922 157.271C404.849 157.271 399.908 162.212 399.908 168.284ZM410.922 163.564C413.525 163.564 415.642 165.681 415.642 168.284C415.642 170.887 413.525 173.004 410.922 173.004C408.318 173.004 406.202 170.887 406.202 168.284C406.202 165.681 408.319 163.564 410.922 163.564Z" fill="#B6B6B6"/>
<path d="M423.509 134.087C425.477 134.087 427.072 132.492 427.072 130.524C427.072 128.557 425.477 126.961 423.509 126.961C421.541 126.961 419.946 128.557 419.946 130.524C419.946 132.492 421.541 134.087 423.509 134.087Z" fill="#B6B6B6"/>
<path d="M272.469 146.674C274.437 146.674 276.032 145.079 276.032 143.111C276.032 141.143 274.437 139.548 272.469 139.548C270.501 139.548 268.906 141.143 268.906 143.111C268.906 145.079 270.501 146.674 272.469 146.674Z" fill="#B6B6B6"/>
<path d="M388.757 119.649C389.371 120.264 390.176 120.571 390.981 120.571C391.786 120.571 392.592 120.264 393.206 119.649L396.762 116.094L400.317 119.649C400.932 120.264 401.737 120.571 402.542 120.571C403.347 120.571 404.152 120.264 404.767 119.649C405.996 118.421 405.996 116.429 404.767 115.2L401.211 111.644L404.767 108.088C405.996 106.86 405.996 104.868 404.767 103.639C403.538 102.41 401.546 102.41 400.317 103.639L396.762 107.195L393.206 103.639C391.977 102.41 389.985 102.41 388.757 103.639C387.528 104.868 387.528 106.86 388.757 108.088L392.312 111.644L388.757 115.2C387.528 116.429 387.528 118.42 388.757 119.649Z" fill="#B6B6B6"/>
<path d="M244.01 185.729C244.625 186.344 245.43 186.651 246.235 186.651C247.04 186.651 247.845 186.344 248.46 185.729L252.016 182.174L255.571 185.729C256.186 186.344 256.991 186.651 257.796 186.651C258.601 186.651 259.406 186.344 260.021 185.729C261.249 184.501 261.249 182.509 260.021 181.28L256.465 177.724L260.021 174.169C261.249 172.94 261.249 170.948 260.021 169.719C258.792 168.49 256.8 168.49 255.571 169.719L252.016 173.275L248.46 169.719C247.231 168.49 245.239 168.49 244.01 169.719C242.782 170.948 242.782 172.94 244.01 174.169L247.566 177.724L244.01 181.28C242.782 182.509 242.782 184.5 244.01 185.729Z" fill="#B6B6B6"/>
<path d="M351.135 187.164C352.873 187.164 354.282 185.755 354.282 184.018C354.282 182.28 352.873 180.871 351.135 180.871C349.397 180.871 347.988 182.28 347.988 184.018C347.988 185.755 349.397 187.164 351.135 187.164Z" fill="#B6B6B6"/>
<path d="M319.669 187.164C321.407 187.164 322.816 185.755 322.816 184.018C322.816 182.28 321.407 180.871 319.669 180.871C317.931 180.871 316.522 182.28 316.522 184.018C316.522 185.755 317.931 187.164 319.669 187.164Z" fill="#B6B6B6"/>
<path d="M422.249 234.994C418.257 231.998 417.922 227.158 417.535 221.556C416.929 212.823 416.177 201.957 398.726 199.775C389.833 198.672 381.016 201.521 373.888 207.811C367.963 213.044 363.778 220.181 361.829 227.901L349.562 222.327V219.789C349.562 219.76 349.547 219.735 349.546 219.706C361.589 213.952 370.745 203.23 374.46 190.305C376.552 190.36 378.479 189.797 380.381 188.612C383.3 186.79 385.276 183.827 385.663 180.681C386.053 177.528 385.076 174.366 382.99 172.003C381.555 170.383 379.693 169.237 377.646 168.675C377.64 168.122 377.618 166.111 377.611 165.902C377.768 165.525 377.883 151.877 377.883 151.877C378.612 151.79 379.321 151.658 379.991 151.426C382.351 150.612 384.152 148.94 385.338 146.46H385.342C389.435 137.906 382.12 125.788 368.223 116.458C369.197 113.992 369.298 111.304 368.41 108.783C367.43 106.009 365.433 103.781 362.781 102.511C360.129 101.236 357.142 101.076 354.361 102.053C351.837 102.944 349.805 104.708 348.496 107.01C332.516 102.03 318.488 103.925 314.389 112.48C313.466 114.407 313.267 116.421 313.715 118.371C300.248 124.528 292.868 136.169 292.925 151.361L292.965 156.557C292.996 159.498 293.073 165.007 293.132 165.253C293.131 165.299 293.164 167.9 293.164 168.668C291.271 169.181 289.547 170.198 288.146 171.649C286.053 173.822 284.959 176.68 285.067 179.696C285.183 183.064 287.095 186.315 290.174 188.393C292.119 189.705 294.07 190.347 296.19 190.313C299.482 202.337 307.463 212.428 318.112 218.555C318.111 218.581 318.097 218.603 318.097 218.63V222.327L293.019 233.724C281.493 238.963 274.044 250.671 274.044 263.546V289.429C274.044 291.169 275.451 292.576 277.191 292.576H390.471C392.21 292.576 393.617 291.169 393.617 289.429V274.941C395.167 275.136 396.736 275.269 398.337 275.269C412.236 275.269 426.974 266.275 430.523 255.63C431.959 251.318 432.795 242.904 422.249 234.994ZM356.451 107.991C357.644 107.573 358.922 107.646 360.056 108.184C361.948 109.093 362.939 111.101 362.674 113.074C361.386 112.366 360.066 111.676 358.697 111.02C357.342 110.371 355.989 109.779 354.642 109.224C355.15 108.69 355.737 108.242 356.451 107.991ZM320.062 115.197C321.478 112.244 325.9 110.526 332.102 110.526C338.582 110.526 347.008 112.4 355.981 116.696C373.539 125.11 382.552 137.703 379.661 143.744C379.084 144.952 378.435 145.305 377.934 145.48C374.272 146.734 365.584 142.435 356.365 137.887C354.101 136.769 351.726 135.595 349.242 134.406C346.805 133.238 344.39 132.116 342.048 131.028C331.886 126.305 321.382 121.419 319.892 117.268C319.647 116.582 319.696 115.961 320.062 115.197ZM316.913 123.82C321.327 128.327 329.565 132.166 339.393 136.735C341.716 137.813 344.11 138.926 346.525 140.085C348.983 141.261 351.337 142.423 353.581 143.529C360.722 147.057 366.654 149.978 371.588 151.267V163.165C362.173 170.245 351.525 172.928 341.461 170.728C332.439 168.758 324.957 163.04 320.937 155.041C320.479 154.131 319.609 153.498 318.605 153.345C317.594 153.182 316.577 153.529 315.869 154.26C311.81 158.439 305.883 160.95 299.291 161.362C299.288 159.843 299.27 158.19 299.254 156.497L299.214 151.337C299.155 135.121 308.617 127.443 316.913 123.82ZM301.646 186.089C301.465 185.207 300.914 184.445 300.134 183.993C299.353 183.545 298.416 183.458 297.559 183.738C296.342 184.153 295.217 184.209 293.693 183.176C292.299 182.236 291.401 180.816 291.351 179.473C291.305 178.177 291.775 176.95 292.673 176.019C293.571 175.09 294.775 174.578 296.068 174.578C296.919 174.578 297.767 174.215 298.361 173.607C299.235 172.708 299.504 171.937 299.45 167.643C306.182 167.265 312.427 165.07 317.321 161.352C322.468 169.222 330.583 174.796 340.118 176.876C342.872 177.479 345.653 177.777 348.44 177.777C356.266 177.775 364.115 175.392 371.421 170.855C371.54 172.293 371.827 172.981 372.464 173.625C373.054 174.224 373.892 174.578 374.735 174.578C376.087 174.578 377.377 175.158 378.272 176.172C379.181 177.199 379.587 178.526 379.418 179.912C379.258 181.19 378.373 182.444 377.052 183.271C375.724 184.098 374.6 184.224 373.177 183.723C372.329 183.412 371.385 183.501 370.599 183.937C369.809 184.377 369.246 185.135 369.053 186.018C365.989 200.086 355.591 211.578 341.913 216.01L340.524 216.464C336.611 217.733 332.614 217.78 328.969 216.603C315.056 212.126 304.586 200.433 301.646 186.089ZM327.04 222.595C329.424 223.363 331.905 223.744 334.421 223.744C337.092 223.744 339.799 223.314 342.467 222.45L343.269 222.188V223.351C343.269 228.556 339.034 232.791 333.829 232.791C328.624 232.791 324.389 228.556 324.389 223.351V221.552C325.273 221.898 326.128 222.301 327.04 222.595ZM387.322 286.284H368.442V270.551C368.442 268.812 367.034 267.404 365.295 267.404C363.556 267.404 362.148 268.812 362.148 270.551V286.284H302.362V270.551C302.362 268.812 300.954 267.404 299.215 267.404C297.476 267.404 296.068 268.812 296.068 270.551V286.284H280.335V263.548C280.335 253.134 286.336 243.675 295.623 239.453L319.118 228.776C321.338 234.774 327.068 239.084 333.828 239.084C340.59 239.084 346.318 234.774 348.539 228.775L360.75 234.323C360.661 235.384 360.575 236.445 360.575 237.511C360.575 254.502 371.857 268.897 387.322 273.623V286.284ZM424.55 253.641C421.874 261.667 409.379 268.978 398.335 268.978C380.985 268.978 366.868 254.861 366.868 237.511C366.868 228.05 371.05 218.711 378.054 212.531C383.008 208.158 388.929 205.835 394.988 205.835C395.972 205.835 396.958 205.896 397.945 206.019C410.258 207.559 410.676 213.612 411.257 221.989C411.687 228.231 412.176 235.304 418.475 240.027C424.108 244.253 426.151 248.835 424.55 253.641Z" fill="#B6B6B6"/>
<path d="M410.922 240.787C405.788 240.787 401.611 244.963 401.611 250.098C401.611 255.229 405.788 259.405 410.922 259.405C416.057 259.405 420.233 255.229 420.233 250.098C420.233 244.963 416.058 240.787 410.922 240.787ZM410.922 253.112C409.26 253.112 407.905 251.76 407.905 250.098C407.905 248.435 409.26 247.08 410.922 247.08C412.585 247.08 413.94 248.435 413.94 250.098C413.94 251.76 412.585 253.112 410.922 253.112Z" fill="#B6B6B6"/>
<path d="M392.042 210.396C387.501 210.396 383.807 214.089 383.807 218.631C383.807 223.173 387.5 226.867 392.042 226.867C396.584 226.867 400.278 223.173 400.278 218.631C400.278 214.089 396.584 210.396 392.042 210.396ZM392.042 220.573C390.973 220.573 390.1 219.701 390.1 218.631C390.1 217.561 390.972 216.689 392.042 216.689C393.112 216.689 393.985 217.561 393.985 218.631C393.985 219.701 393.112 220.573 392.042 220.573Z" fill="#B6B6B6"/>
<path d="M386.118 235.938C386.118 231.396 382.424 227.702 377.882 227.702C373.34 227.702 369.646 231.395 369.646 235.938C369.646 240.48 373.34 244.173 377.882 244.173C382.424 244.173 386.118 240.48 386.118 235.938ZM377.882 237.88C376.813 237.88 375.94 237.007 375.94 235.938C375.94 234.868 376.812 233.995 377.882 233.995C378.952 233.995 379.824 234.868 379.824 235.938C379.824 237.007 378.952 237.88 377.882 237.88Z" fill="#B6B6B6"/>
<path d="M388.896 248.155C384.354 248.155 380.66 251.849 380.66 256.391C380.66 260.933 384.354 264.626 388.896 264.626C393.438 264.626 397.131 260.933 397.131 256.391C397.131 251.849 393.438 248.155 388.896 248.155ZM388.896 258.333C387.827 258.333 386.953 257.461 386.953 256.391C386.953 255.321 387.826 254.449 388.896 254.449C389.966 254.449 390.838 255.321 390.838 256.391C390.838 257.461 389.966 258.333 388.896 258.333Z" fill="#B6B6B6"/>
<path d="M265.303 215.131C264.72 214.554 264.126 213.967 263.549 213.361C263.548 213.36 263.547 213.36 263.547 213.359C263.547 213.359 263.547 213.359 263.547 213.358C261.135 210.835 259.528 208.536 259.528 205.528C259.528 201.53 257.453 200.433 256.215 200.136C251.308 198.894 245.561 208.525 242.574 214.348C240.78 217.847 238.638 222.746 238.638 226.209C238.638 232.315 242.005 237.599 246.945 240.459L245.125 280.882C244.977 284.148 246.12 287.308 248.262 289.545C250.13 291.502 252.582 292.578 255.163 292.578C257.744 292.578 260.196 291.502 262.065 289.545C264.207 287.308 265.35 284.149 265.202 280.882L263.382 240.459C268.321 237.598 271.689 232.314 271.689 226.209C271.689 221.455 268.296 218.094 265.303 215.131ZM253.565 208.622C254.148 211.256 255.43 213.447 256.914 215.333C255.802 216.16 254.705 216.596 253.632 216.639C252.188 216.633 250.621 215.966 249.343 215.041C250.866 212.334 252.363 210.15 253.565 208.622ZM258.915 281.165C258.986 282.722 258.475 284.195 257.517 285.196C257.043 285.694 256.248 286.284 255.163 286.284C254.078 286.284 253.282 285.694 252.809 285.196C251.851 284.195 251.341 282.722 251.412 281.165L253.151 242.531C253.818 242.613 254.474 242.735 255.163 242.735C255.852 242.735 256.508 242.614 257.175 242.531L258.915 281.165ZM255.162 236.442C249.52 236.442 244.929 231.851 244.929 226.209C244.929 225.317 245.397 223.42 246.55 220.686C248.816 222.136 251.121 222.936 253.447 222.936C253.589 222.936 253.73 222.932 253.875 222.926C256.452 222.827 258.909 221.815 261.217 219.941C263.491 222.2 265.395 224.181 265.395 226.208C265.395 231.851 260.804 236.442 255.162 236.442Z" fill="#B6B6B6"/>
</svg>
